<svg id="SvgjsSvg1026" width="288" height="288" xmlns="http://www.w3.org/2000/svg" version="1.1" xmlns:xlink="http://www.w3.org/1999/xlink" xmlns:svgjs="http://svgjs.com/svgjs"><defs id="SvgjsDefs1027"></defs><g id="SvgjsG1028"><svg xmlns="http://www.w3.org/2000/svg" width="288" height="288" viewBox="0 0 24 24"><path d="M6.1 1.4l11.6 6.7-3.3 3.3L4 1.1c.2 0 .5-.1.7-.1.5 0 1 .1 1.4.4zm-4 19V3.6c0-.8.4-1.5 1-2l10.5 10.5L3.2 22.5c-.7-.5-1.1-1.3-1.1-2.1zm4 2.3c-.6.3-1.3.4-1.9.3l10.2-10.1 3.2 3.2-11.5 6.6zm14.5-8.4l-2.1 1.2-3.5-3.4 3.5-3.5 2 1.2c.8.5 1.3 1.3 1.3 2.3.1.8-.4 1.7-1.2 2.2z" fill="#ffffff" class="color000 svgShape"></path></svg></g></svg>